<mxfile host="65bd71144e">
    <diagram id="wv4HwlGobHLPcIA4QRNm" name="Página-1">
        <mxGraphModel dx="798" dy="563" grid="1" gridSize="10" guides="1" tooltips="1" connect="1" arrows="1" fold="1" page="1" pageScale="1" pageWidth="827" pageHeight="1169" background="#ffffff" math="0" shadow="0">
            <root>
                <mxCell id="0"/>
                <mxCell id="1" parent="0"/>
                <mxCell id="4" value="Postulacion de Ascensos" style="swimlane;childLayout=stackLayout;resizeParent=1;resizeParentMax=0;startSize=20;html=1;" vertex="1" parent="1">
                    <mxGeometry x="170" y="50" width="480" height="480" as="geometry"/>
                </mxCell>
                <mxCell id="5" value="&lt;span style=&quot;color: rgb(0, 0, 0);&quot;&gt;Director General de Gestión Académica&lt;/span&gt;" style="swimlane;startSize=20;html=1;" vertex="1" parent="4">
                    <mxGeometry y="20" width="270" height="460" as="geometry"/>
                </mxCell>
                <mxCell id="10" value="" style="ellipse;html=1;shape=startState;fillColor=#000000;strokeColor=#ff0000;" vertex="1" parent="5">
                    <mxGeometry x="110" y="40" width="30" height="30" as="geometry"/>
                </mxCell>
                <mxCell id="14" style="edgeStyle=none;html=1;exitX=0.5;exitY=1;exitDx=0;exitDy=0;entryX=0.5;entryY=0;entryDx=0;entryDy=0;" edge="1" parent="5" source="12" target="13">
                    <mxGeometry relative="1" as="geometry"/>
                </mxCell>
                <mxCell id="12" value="Se hace una lista de antiguedad y categoria de los profesores" style="html=1;whiteSpace=wrap;" vertex="1" parent="5">
                    <mxGeometry x="60" y="90" width="130" height="60" as="geometry"/>
                </mxCell>
                <mxCell id="11" value="" style="edgeStyle=orthogonalEdgeStyle;html=1;verticalAlign=bottom;endArrow=open;endSize=8;strokeColor=#ff0000;entryX=0.5;entryY=0;entryDx=0;entryDy=0;" edge="1" source="10" parent="5" target="12">
                    <mxGeometry relative="1" as="geometry">
                        <mxPoint x="115" y="90" as="targetPoint"/>
                    </mxGeometry>
                </mxCell>
                <mxCell id="13" value="Se hace llamado a los profesores que cumplen los requisitos" style="html=1;whiteSpace=wrap;" vertex="1" parent="5">
                    <mxGeometry x="60" y="190" width="130" height="60" as="geometry"/>
                </mxCell>
                <mxCell id="7" value="Docente" style="swimlane;startSize=20;html=1;" vertex="1" parent="4">
                    <mxGeometry x="270" y="20" width="210" height="460" as="geometry"/>
                </mxCell>
                <mxCell id="18" style="edgeStyle=none;html=1;exitX=0.5;exitY=1;exitDx=0;exitDy=0;entryX=0.5;entryY=0;entryDx=0;entryDy=0;" edge="1" parent="7" source="15" target="17">
                    <mxGeometry relative="1" as="geometry"/>
                </mxCell>
                <mxCell id="15" value="Se les notifica para optar por el concurso de ascenso" style="html=1;whiteSpace=wrap;" vertex="1" parent="7">
                    <mxGeometry x="40" y="195" width="130" height="50" as="geometry"/>
                </mxCell>
                <mxCell id="17" value="" style="ellipse;html=1;shape=endState;fillColor=#000000;strokeColor=#ff0000;" vertex="1" parent="7">
                    <mxGeometry x="90" y="300" width="30" height="30" as="geometry"/>
                </mxCell>
                <mxCell id="16" style="edgeStyle=none;html=1;exitX=1;exitY=0.5;exitDx=0;exitDy=0;entryX=0;entryY=0.5;entryDx=0;entryDy=0;" edge="1" parent="4" source="13" target="15">
                    <mxGeometry relative="1" as="geometry"/>
                </mxCell>
            </root>
        </mxGraphModel>
    </diagram>
</mxfile>